<svg xmlns="http://www.w3.org/2000/svg" width="35" height="40" viewBox="0 0 35 40">
  <path id="building-icon" d="M16.563,2.5H15V-33.125A1.875,1.875,0,0,0,13.125-35h-26.25A1.875,1.875,0,0,0-15-33.125V2.5h-1.562a.938.938,0,0,0-.937.938V5h35V3.438A.938.938,0,0,0,16.563,2.5ZM-7.5-29.062A.938.938,0,0,1-6.562-30h3.125a.938.938,0,0,1,.938.938v3.125A.938.938,0,0,1-3.437-25H-6.562a.938.938,0,0,1-.937-.937Zm0,7.5a.938.938,0,0,1,.938-.937h3.125a.938.938,0,0,1,.938.938v3.125a.938.938,0,0,1-.937.938H-6.562a.938.938,0,0,1-.937-.937ZM-3.437-10H-6.562a.938.938,0,0,1-.937-.937v-3.125A.938.938,0,0,1-6.562-15h3.125a.938.938,0,0,1,.938.938v3.125A.938.938,0,0,1-3.437-10ZM2.5,2.5h-5V-4.062A.938.938,0,0,1-1.562-5H1.563a.938.938,0,0,1,.938.938Zm5-13.437A.938.938,0,0,1,6.563-10H3.438a.938.938,0,0,1-.937-.937v-3.125A.938.938,0,0,1,3.438-15H6.563a.938.938,0,0,1,.938.938Zm0-7.5a.938.938,0,0,1-.937.938H3.438a.938.938,0,0,1-.937-.937v-3.125a.938.938,0,0,1,.938-.937H6.563a.938.938,0,0,1,.938.938Zm0-7.5A.938.938,0,0,1,6.563-25H3.438a.938.938,0,0,1-.937-.937v-3.125A.938.938,0,0,1,3.438-30H6.563a.938.938,0,0,1,.938.938Z" transform="translate(17.5 35)" fill="#1c52c0"/>
</svg>
