<svg xmlns="http://www.w3.org/2000/svg" width="50" height="40" viewBox="0 0 50 40">
  <path id="heat-icon" d="M2.5-14.07V-26.25a11.133,11.133,0,0,1,.7-3.758l-6.4,2.133-3.234-6.469a1.188,1.188,0,0,0-2.125,0L-11.8-27.875l-6.867-2.289a1.19,1.19,0,0,0-1.5,1.5l2.289,6.867-6.469,3.234a1.182,1.182,0,0,0,0,2.117l6.469,3.242-2.289,6.867a1.185,1.185,0,0,0,1.5,1.5L-11.8-7.125-8.562-.656a1.182,1.182,0,0,0,2.117,0l3.234-6.477L0-6.062c0-.063-.008-.125-.008-.2A13.534,13.534,0,0,1,2.5-14.07ZM-2.2-12.2a7.516,7.516,0,0,1-10.609,0,7.509,7.509,0,0,1,0-10.609A7.516,7.516,0,0,1-2.2-22.8,7.516,7.516,0,0,1-2.2-12.2ZM-7.5-22.5a5,5,0,0,0-5,5,5,5,0,0,0,5,5,5,5,0,0,0,5-5A5,5,0,0,0-7.5-22.5Zm30,9.258V-26.25A8.746,8.746,0,0,0,13.75-35,8.746,8.746,0,0,0,5-26.25v13.008A11.149,11.149,0,0,0,2.5-6.25,11.253,11.253,0,0,0,13.75,5,11.253,11.253,0,0,0,25-6.25,11.149,11.149,0,0,0,22.5-13.242ZM13.75,0A6.258,6.258,0,0,1,7.5-6.25,6.238,6.238,0,0,1,10-11.234V-26.25A3.751,3.751,0,0,1,13.75-30a3.751,3.751,0,0,1,3.75,3.75v15.016A6.227,6.227,0,0,1,20-6.25,6.258,6.258,0,0,1,13.75,0ZM15-9.773V-26.25a1.254,1.254,0,0,0-1.25-1.25,1.254,1.254,0,0,0-1.25,1.25V-9.773A3.74,3.74,0,0,0,10-6.25,3.751,3.751,0,0,0,13.75-2.5,3.751,3.751,0,0,0,17.5-6.25,3.74,3.74,0,0,0,15-9.773Z" transform="translate(25 35)" fill="#fff"/>
</svg>
