<svg xmlns="http://www.w3.org/2000/svg" width="45.003" height="34.996" viewBox="0 0 45.003 34.996">
  <path id="home-icon" d="M-.6-23.417-15-11.554V1.25A1.25,1.25,0,0,0-13.75,2.5L-5,2.477a1.252,1.252,0,0,0,1.244-1.25h0V-6.25A1.25,1.25,0,0,1-2.5-7.5h5a1.251,1.251,0,0,1,1.25,1.25V1.222s0,0,0,0A1.25,1.25,0,0,0,5,2.476H5L13.75,2.5A1.25,1.25,0,0,0,15,1.25V-11.562L.6-23.417a1.108,1.108,0,0,0-.6-.211A1.108,1.108,0,0,0-.6-23.417Zm22.752,8.063-6.531-5.384V-31.559a.938.938,0,0,0-.937-.938H10.313a.938.938,0,0,0-.937.938v5.673L2.38-31.641A4.357,4.357,0,0,0,0-32.495a4.358,4.358,0,0,0-2.383.854L-22.161-15.354a1.064,1.064,0,0,0-.34.723,1.089,1.089,0,0,0,.215.6l1.992,2.422a1.063,1.063,0,0,0,.724.342,1.09,1.09,0,0,0,.6-.215L-.6-26.62a1.108,1.108,0,0,1,.6-.211,1.108,1.108,0,0,1,.6.211L18.977-11.484a1.089,1.089,0,0,0,.6.215,1.063,1.063,0,0,0,.723-.34l1.992-2.422a1.09,1.09,0,0,0,.213-.6A1.062,1.062,0,0,0,22.156-15.354Z" transform="translate(22.501 32.496)" fill="#1c52c0"/>
</svg>
