<svg xmlns="http://www.w3.org/2000/svg" width="40" height="35" viewBox="0 0 40 35">
  <path id="shower-icon" d="M3.75-10A1.25,1.25,0,0,0,2.5-8.75,1.25,1.25,0,0,0,3.75-7.5,1.25,1.25,0,0,0,5-8.75,1.25,1.25,0,0,0,3.75-10Zm2.5-7.5A1.25,1.25,0,0,0,5-16.25,1.25,1.25,0,0,0,6.25-15,1.25,1.25,0,0,0,7.5-16.25,1.25,1.25,0,0,0,6.25-17.5Zm2.5,5A1.25,1.25,0,0,0,10-13.75,1.25,1.25,0,0,0,8.75-15,1.25,1.25,0,0,0,7.5-13.75,1.25,1.25,0,0,0,8.75-12.5ZM6.25-10A1.25,1.25,0,0,0,7.5-11.25,1.25,1.25,0,0,0,6.25-12.5,1.25,1.25,0,0,0,5-11.25,1.25,1.25,0,0,0,6.25-10Zm-2.5-5A1.25,1.25,0,0,0,2.5-13.75,1.25,1.25,0,0,0,3.75-12.5,1.25,1.25,0,0,0,5-13.75,1.25,1.25,0,0,0,3.75-15Zm10-2.5A1.25,1.25,0,0,0,15-18.75,1.25,1.25,0,0,0,13.75-20a1.25,1.25,0,0,0-1.25,1.25A1.25,1.25,0,0,0,13.75-17.5ZM10-16.25A1.25,1.25,0,0,0,11.25-15a1.25,1.25,0,0,0,1.25-1.25,1.25,1.25,0,0,0-1.25-1.25A1.25,1.25,0,0,0,10-16.25ZM8.75-20A1.25,1.25,0,0,0,7.5-18.75,1.25,1.25,0,0,0,8.75-17.5,1.25,1.25,0,0,0,10-18.75,1.25,1.25,0,0,0,8.75-20Zm7.5,2.5A1.25,1.25,0,0,0,15-16.25,1.25,1.25,0,0,0,16.25-15a1.25,1.25,0,0,0,1.25-1.25A1.25,1.25,0,0,0,16.25-17.5Zm2.5-2.5a1.25,1.25,0,0,0-1.25,1.25,1.25,1.25,0,0,0,1.25,1.25A1.25,1.25,0,0,0,20-18.75,1.25,1.25,0,0,0,18.75-20Zm-5,5a1.25,1.25,0,0,0-1.25,1.25,1.25,1.25,0,0,0,1.25,1.25A1.25,1.25,0,0,0,15-13.75,1.25,1.25,0,0,0,13.75-15Zm-2.5,2.5A1.25,1.25,0,0,0,10-11.25,1.25,1.25,0,0,0,11.25-10a1.25,1.25,0,0,0,1.25-1.25A1.25,1.25,0,0,0,11.25-12.5Zm-5,5A1.25,1.25,0,0,0,5-6.25,1.25,1.25,0,0,0,6.25-5,1.25,1.25,0,0,0,7.5-6.25,1.25,1.25,0,0,0,6.25-7.5ZM3.75-5A1.25,1.25,0,0,0,2.5-3.75,1.25,1.25,0,0,0,3.75-2.5,1.25,1.25,0,0,0,5-3.75,1.25,1.25,0,0,0,3.75-5Zm5-5A1.25,1.25,0,0,0,7.5-8.75,1.25,1.25,0,0,0,8.75-7.5,1.25,1.25,0,0,0,10-8.75,1.25,1.25,0,0,0,8.75-10Zm1.691-17.059-.883-.884a1.436,1.436,0,0,0-.884-.366,1.436,1.436,0,0,0-.884.366l-.443.442A9.987,9.987,0,0,0,1.25-30a8.654,8.654,0,0,0-4.133,1.082l-.781-.781a10.926,10.926,0,0,0-6.692-2.8C-15.665-32.539-20-27.741-20-22.434V1.25A1.25,1.25,0,0,0-18.75,2.5h2.5A1.25,1.25,0,0,0-15,1.25V-22.625a4.78,4.78,0,0,1,3.984-4.838,5.512,5.512,0,0,1,.592-.039,5.238,5.238,0,0,1,3.23,1.341l.781.781A8.567,8.567,0,0,0-7.5-21.25a9.99,9.99,0,0,0,2.5,6.1l-.442.443a1.436,1.436,0,0,0-.366.884,1.436,1.436,0,0,0,.366.884l.883.884a1.436,1.436,0,0,0,.884.366,1.436,1.436,0,0,0,.884-.366L10.441-25.291a1.436,1.436,0,0,0,.366-.884A1.436,1.436,0,0,0,10.441-27.059Z" transform="translate(20 32.5)" fill="#1c52c0"/>
</svg>
