<svg xmlns="http://www.w3.org/2000/svg" width="35.003" height="40" viewBox="0 0 35.003 40">
  <path id="snowflake-icon" d="M16.9-8.031,14.258-9.555l2.031-.547a1.208,1.208,0,0,0,.852-1.477l-.312-1.164a1.208,1.208,0,0,0-1.477-.852L9.82-12.109,4.828-15l4.984-2.883L15.344-16.4a1.208,1.208,0,0,0,1.477-.852l.313-1.164a1.208,1.208,0,0,0-.852-1.477l-2.031-.547,2.641-1.523a1.212,1.212,0,0,0,.445-1.648L16.125-25.7a1.212,1.212,0,0,0-1.648-.445l-2.641,1.523.547-2.031a1.208,1.208,0,0,0-.852-1.477l-1.164-.312a1.208,1.208,0,0,0-1.477.852L7.406-22.063,2.5-19.234v-6.055l4.2-4.2a1.254,1.254,0,0,0,0-1.766l-.883-.883a1.254,1.254,0,0,0-1.766,0L2.5-30.594V-33.75A1.254,1.254,0,0,0,1.25-35h-2.5A1.254,1.254,0,0,0-2.5-33.75v3.156l-1.539-1.539a1.254,1.254,0,0,0-1.766,0l-.891.883a1.24,1.24,0,0,0,0,1.766l4.2,4.2v6.055l-4.906-2.828-1.484-5.531a1.208,1.208,0,0,0-1.477-.852l-1.164.313a1.208,1.208,0,0,0-.852,1.477l.547,2.031-2.641-1.523a1.205,1.205,0,0,0-1.648.445l-1.211,2.086a1.205,1.205,0,0,0,.445,1.648l2.641,1.523-2.031.547a1.212,1.212,0,0,0-.859,1.484l.313,1.164a1.208,1.208,0,0,0,1.477.852l5.531-1.484L-4.836-15-9.82-12.117-15.352-13.6a1.208,1.208,0,0,0-1.477.852l-.312,1.164a1.208,1.208,0,0,0,.852,1.477l2.031.547L-16.9-8.031a1.212,1.212,0,0,0-.445,1.648l1.211,2.094a1.212,1.212,0,0,0,1.648.445l2.641-1.523-.547,2.031a1.208,1.208,0,0,0,.852,1.477l1.164.313A1.208,1.208,0,0,0-8.9-2.4L-7.414-7.93l4.906-2.828V-4.7l-4.2,4.2a1.24,1.24,0,0,0,0,1.766l.883.883a1.254,1.254,0,0,0,1.766,0L-2.516.6V3.75A1.254,1.254,0,0,0-1.266,5h2.5a1.254,1.254,0,0,0,1.25-1.25V.594L4.023,2.133a1.254,1.254,0,0,0,1.766,0l.883-.883a1.254,1.254,0,0,0,0-1.766L2.5-4.711v-6.055L7.406-7.937,8.891-2.406a1.208,1.208,0,0,0,1.477.852l1.164-.312a1.208,1.208,0,0,0,.852-1.477l-.547-2.031,2.641,1.523A1.205,1.205,0,0,0,16.125-4.3l1.211-2.094A1.194,1.194,0,0,0,16.9-8.031Z" transform="translate(17.503 35)" fill="#1c52c0"/>
</svg>
